<?xml version="1.0" encoding="UTF-8"?>
<svg xmlns="http://www.w3.org/2000/svg" xmlns:xlink="http://www.w3.org/1999/xlink" width="75pt" height="74.999997pt" viewBox="0 0 75 74.999997" version="1.2">
<g id="surface1">
<path style=" stroke:none;fill-rule:evenodd;fill:rgb(100%,100%,100%);fill-opacity:1;" d="M 37.496094 0.78125 C 16.789062 0.78125 0 17.570312 0 38.285156 C 0 54.851562 10.742188 68.90625 25.648438 73.867188 C 27.523438 74.210938 28.207031 73.054688 28.207031 72.058594 C 28.207031 71.167969 28.175781 68.808594 28.15625 65.679688 C 17.726562 67.945312 15.523438 60.652344 15.523438 60.652344 C 13.820312 56.320312 11.363281 55.167969 11.363281 55.167969 C 7.957031 52.839844 11.617188 52.890625 11.617188 52.890625 C 15.382812 53.15625 17.363281 56.757812 17.363281 56.757812 C 20.707031 62.488281 26.140625 60.832031 28.273438 59.871094 C 28.617188 57.449219 29.585938 55.796875 30.65625 54.859375 C 22.328125 53.914062 13.574219 50.695312 13.574219 36.324219 C 13.574219 32.230469 15.039062 28.882812 17.433594 26.261719 C 17.050781 25.3125 15.761719 21.5 17.804688 16.335938 C 17.804688 16.335938 20.953125 15.328125 28.117188 20.179688 C 31.105469 19.351562 34.316406 18.933594 37.503906 18.917969 C 40.6875 18.933594 43.898438 19.351562 46.890625 20.179688 C 54.050781 15.328125 57.195312 16.335938 57.195312 16.335938 C 59.242188 21.5 57.953125 25.3125 57.566406 26.261719 C 59.96875 28.882812 61.417969 32.230469 61.417969 36.324219 C 61.417969 50.730469 52.648438 53.898438 44.296875 54.828125 C 45.644531 55.984375 46.84375 58.273438 46.84375 61.773438 C 46.84375 66.785156 46.796875 70.828125 46.796875 72.058594 C 46.796875 73.0625 47.472656 74.226562 49.375 73.863281 C 64.265625 68.890625 75 54.847656 75 38.285156 C 75 17.570312 58.210938 0.78125 37.496094 0.78125 Z M 37.496094 0.78125 "/>
</g>
</svg>
