<?xml version="1.0" encoding="UTF-8"?>
<svg xmlns="http://www.w3.org/2000/svg" xmlns:xlink="http://www.w3.org/1999/xlink" width="75pt" height="74.999997pt" viewBox="0 0 75 74.999997" version="1.2">
<g id="surface1">
<path style=" stroke:none;fill-rule:nonzero;fill:rgb(100%,100%,100%);fill-opacity:1;" d="M 37.5 0 C 16.824219 0 0 16.820312 0 37.5 C 0 58.179688 16.824219 75 37.5 75 C 58.175781 75 75 58.179688 75 37.5 C 75 16.820312 58.175781 0 37.5 0 Z M 26.085938 53.804688 L 19.566406 53.804688 L 19.566406 29.347656 L 26.085938 29.347656 Z M 22.824219 24.457031 C 21.023438 24.457031 19.566406 22.996094 19.566406 21.195312 C 19.566406 19.394531 21.023438 17.933594 22.824219 17.933594 C 24.628906 17.933594 26.085938 19.394531 26.085938 21.195312 C 26.085938 22.996094 24.628906 24.457031 22.824219 24.457031 Z M 57.066406 53.804688 L 50.542969 53.804688 L 50.542969 41.574219 C 50.542969 38.4375 47.976562 35.871094 44.835938 35.871094 C 41.699219 35.871094 39.128906 38.4375 39.128906 41.574219 L 39.128906 53.804688 L 32.609375 53.804688 L 32.609375 29.347656 L 39.128906 29.347656 L 39.128906 32.308594 C 41.035156 30.480469 43.617188 29.347656 46.46875 29.347656 C 52.320312 29.347656 57.066406 34.09375 57.066406 39.945312 Z M 57.066406 53.804688 "/>
</g>
</svg>
