<?xml version="1.0" encoding="UTF-8"?>
<svg xmlns="http://www.w3.org/2000/svg" xmlns:xlink="http://www.w3.org/1999/xlink" width="75pt" height="74.999997pt" viewBox="0 0 75 74.999997" version="1.2">
<defs>
<clipPath id="clip1">
  <path d="M 0.375 0 L 74.625 0 L 74.625 75 L 0.375 75 Z M 0.375 0 "/>
</clipPath>
</defs>
<g id="surface1">
<g clip-path="url(#clip1)" clip-rule="nonzero">
<path style=" stroke:none;fill-rule:nonzero;fill:rgb(100%,100%,100%);fill-opacity:1;" d="M 42.710938 40.558594 C 41.710938 43.59375 40.523438 45.90625 39.148438 47.488281 C 38.1875 48.605469 37.214844 49.421875 36.230469 49.9375 C 34.929688 50.667969 33.542969 51.03125 32.0625 51.03125 C 30.089844 51.03125 28.433594 50.253906 27.097656 48.691406 C 25.761719 47.136719 25.09375 44.710938 25.09375 41.414062 C 25.09375 38.949219 25.574219 36.117188 26.535156 32.925781 C 27.492188 29.734375 28.921875 27.273438 30.816406 25.546875 C 32.710938 23.820312 34.773438 22.957031 37.007812 22.957031 C 39.082031 22.957031 40.804688 23.742188 42.167969 25.3125 C 43.527344 26.882812 44.210938 29.136719 44.210938 32.070312 C 44.210938 34.691406 43.710938 37.519531 42.710938 40.558594 Z M 70.855469 53.726562 C 69.5 53.726562 68.574219 54.570312 67.910156 55.644531 L 67.902344 55.640625 C 65.175781 59.089844 62.160156 63.035156 56.398438 65.183594 C 51.910156 66.851562 46.597656 67.773438 40.394531 67.773438 C 33.957031 67.773438 28.238281 66.738281 23.242188 64.675781 C 18.246094 62.613281 14.367188 59.335938 11.601562 54.84375 C 8.835938 50.355469 7.457031 45.371094 7.457031 39.894531 C 7.457031 34.261719 8.695312 28.84375 11.171875 23.640625 C 13.652344 18.4375 17.339844 14.398438 22.230469 11.53125 C 27.125 8.664062 33.085938 7.230469 40.121094 7.230469 C 48.398438 7.230469 54.851562 9.378906 59.472656 13.671875 C 64.089844 17.96875 66.402344 23.308594 66.402344 29.695312 C 66.402344 33.25 65.585938 36.6875 63.949219 40.011719 C 62.316406 43.332031 60.175781 45.980469 57.527344 47.953125 C 55.550781 49.460938 53.941406 50.210938 52.699219 50.210938 C 52.28125 50.210938 51.925781 50.050781 51.625 49.726562 C 51.328125 49.402344 51.179688 48.914062 51.179688 48.265625 C 51.179688 47.746094 51.359375 46.605469 51.722656 44.839844 L 56.488281 21.878906 C 56.523438 21.734375 56.550781 21.589844 56.578125 21.445312 L 56.59375 21.359375 L 56.589844 21.359375 C 56.625 21.125 56.648438 20.882812 56.648438 20.636719 C 56.648438 17.859375 54.394531 15.605469 51.613281 15.605469 C 49.136719 15.605469 47.082031 17.398438 46.664062 19.753906 L 46.351562 21.246094 C 44.144531 17.714844 40.730469 15.949219 36.113281 15.949219 C 29.621094 15.949219 24.300781 19.011719 20.148438 25.136719 C 16.722656 30.175781 15.007812 35.742188 15.007812 41.839844 C 15.007812 46.773438 16.429688 50.726562 19.269531 53.695312 C 22.113281 56.671875 25.691406 58.15625 30 58.15625 C 33.996094 58.15625 37.527344 56.675781 40.589844 53.71875 C 40.953125 55.171875 41.679688 56.273438 42.769531 57.027344 C 43.859375 57.777344 45.480469 58.15625 47.636719 58.15625 C 55.632812 58.15625 62.183594 54.78125 67.296875 48.03125 C 71.371094 42.6875 73.410156 36.703125 73.410156 30.082031 C 73.410156 24.527344 72.066406 19.40625 69.382812 14.722656 C 66.695312 10.039062 62.808594 6.421875 57.71875 3.882812 C 52.632812 1.335938 46.816406 0.0664062 40.277344 0.0664062 C 32.566406 0.0664062 25.714844 1.640625 19.71875 4.792969 C 13.726562 7.949219 9 12.671875 5.546875 18.96875 C 2.09375 25.261719 0.371094 32.054688 0.371094 39.351562 C 0.371094 45.996094 1.886719 52.140625 4.925781 57.785156 C 7.960938 63.429688 12.59375 67.699219 18.824219 70.59375 C 25.054688 73.488281 32.453125 74.9375 41.015625 74.9375 C 47.351562 74.9375 52.4375 74.027344 56.519531 72.5625 L 56.515625 72.5625 C 56.515625 72.5625 67.34375 69.222656 73.394531 59.890625 C 73.394531 59.890625 74.628906 58.300781 74.628906 57.175781 C 74.628906 55.09375 72.941406 53.726562 70.855469 53.726562 "/>
</g>
</g>
</svg>
