<?xml version="1.0" encoding="UTF-8"?>
<svg xmlns="http://www.w3.org/2000/svg" xmlns:xlink="http://www.w3.org/1999/xlink" width="75pt" height="74.999997pt" viewBox="0 0 75 74.999997" version="1.2">
<defs>
<clipPath id="clip1">
  <path d="M 13 0 L 62.765625 0 L 62.765625 75 L 13 75 Z M 13 0 "/>
</clipPath>
</defs>
<g id="surface1">
<g clip-path="url(#clip1)" clip-rule="nonzero">
<path style=" stroke:none;fill-rule:nonzero;fill:rgb(100%,100%,100%);fill-opacity:1;" d="M 38.082031 0 C 22.5 0 13.664062 8.679688 13.410156 21.246094 L 13.410156 21.875 L 27.167969 21.875 L 27.167969 21.246094 C 27.46875 15.695312 31.328125 12.117188 37.164062 12.117188 C 42.949219 12.117188 46.808594 15.441406 46.808594 20.136719 C 46.808594 24.828125 44.828125 27.253906 38.28125 31.140625 C 31.277344 35.226562 28.484375 39.769531 29.144531 47.84375 L 29.222656 50 L 42.695312 50 L 42.695312 47.949219 C 42.695312 43.105469 44.574219 40.628906 51.324219 36.742188 C 58.480469 32.550781 62.183594 27.253906 62.183594 19.683594 C 62.183594 8.023438 52.597656 0 38.082031 0 Z M 36.25 59.375 C 31.085938 59.375 27.867188 62.355469 27.867188 67.210938 C 27.867188 72.023438 31.089844 75 36.25 75 C 41.410156 75 44.59375 72.023438 44.59375 67.210938 C 44.59375 62.355469 41.414062 59.375 36.25 59.375 Z M 36.25 59.375 "/>
</g>
</g>
</svg>
